# xmcd
#
# Track frame offsets:
#	150
#	12206
#	20521
#	34152
#	47014
#	58020
#	68763
#	80922
#	91365
#	103515
#	117352
#	132402
#	148883
#	158558
#
# Disc length: 2301 seconds
#
# Revision: 1
# Processed by: cddbd v1.5.2PL0 Copyright (c) Steve Scherf et al.
# Submitted via: audiograbber 1.83.01
#
DISCID=be08fb0e
DTITLE=Various Artist - The Many Faces Of The Rolling Stones CD3 The Originals
DYEAR=2015
DGENRE=Blues
TTITLE0=Chuck Berry - Around And Around
TTITLE1=Larry Williams - She Said Yeah
TTITLE2=Nat King Cole Trio - Route 66
TTITLE3=Muddy Waters - I Just Want To Make Love To You
TTITLE4=Howlin' Wolf - Little Red Rooster
TTITLE5=Buddy Holly - Not Fade Away
TTITLE6=Jimmy Reed - Honest I Do
TTITLE7=Dale Hawkins - Suzie Q
TTITLE8=The Coasters - Poison Ivy
TTITLE9=Slim Harpo - I'm A King Bee
TTITLE10=Robert Johnson - Love In Vain
TTITLE11=Bo Diddley - Mona
TTITLE12=Gene Allison - You Can Make It If You Try
TTITLE13=Eric Donaldson - Cherry Oh, Baby
EXTD=
EXTT0=
EXTT1=
EXTT2=
EXTT3=
EXTT4=
EXTT5=
EXTT6=
EXTT7=
EXTT8=
EXTT9=
EXTT10=
EXTT11=
EXTT12=
EXTT13=
PLAYORDER=
